<svg xmlns:xlink="http://www.w3.org/1999/xlink" xmlns="http://www.w3.org/2000/svg" id="Group_153" data-name="Group 153" viewBox="0 0 160 160" width="160"  height="160" >
  <defs>
    <style>
      .cls-1 {
        fill: #e86b7b;
      }

      .cls-2 {
        fill: #eb3696;
      }

      .cls-3 {
        fill: #7ccac6;
      }

      .cls-4 {
        fill: #63d3fd;
      }

      .cls-5 {
        fill: #8883b8;
      }

      .cls-6 {
        fill: #fdf5a2;
      }

      .cls-7 {
        fill: #f199be;
      }

      .cls-8 {
        fill: #bfbfbf;
      }

      .cls-9 {
        fill: #00b868;
      }

      .cls-10 {
        fill: #fff;
      }

      .cls-11 {
        fill: #00db6c;
      }

      .cls-12 {
        fill: #dedede;
      }

      .cls-13 {
        fill: #f81b84;
      }

      .cls-14 {
        fill: #c41f6d;
      }
    </style>
  </defs>
  <path id="Path_1262" data-name="Path 1262" class="cls-1" d="M3.936,38.485A.884.884,0,0,1,3,37.55V31.936A.884.884,0,0,1,3.936,31a.884.884,0,0,1,.936.936V37.55A.884.884,0,0,1,3.936,38.485Z" transform="translate(-0.193 -1.994)"/>
  <path id="Path_1263" data-name="Path 1263" class="cls-1" d="M6.55,35.871H.936A.936.936,0,0,1,.936,34H6.55a.936.936,0,1,1,0,1.871Z" transform="translate(0 -2.187)"/>
  <circle id="Oval_19_" class="cls-2" cx="1.404" cy="1.404" r="1.404" transform="translate(11.228 42.105)"/>
  <path id="Path_1264" data-name="Path 1264" class="cls-3" d="M6.743,67.485a3.743,3.743,0,1,1,3.743-3.743A3.754,3.754,0,0,1,6.743,67.485Zm0-5.614a1.871,1.871,0,1,0,1.871,1.871A1.877,1.877,0,0,0,6.743,61.871Z" transform="translate(-0.193 -3.86)"/>
  <path id="Path_1265" data-name="Path 1265" class="cls-4" d="M10.55,141.871H4.936a.936.936,0,1,1,0-1.871H10.55a.936.936,0,1,1,0,1.871Z" transform="translate(-0.257 -9.006)"/>
  <path id="Path_1266" data-name="Path 1266" class="cls-4" d="M7.936,144.485A.884.884,0,0,1,7,143.55v-5.614A.884.884,0,0,1,7.936,137a.884.884,0,0,1,.936.936v5.614A.884.884,0,0,1,7.936,144.485Z" transform="translate(-0.45 -8.813)"/>
  <circle id="Oval_18_" class="cls-5" cx="1.404" cy="1.404" r="1.404" transform="translate(16.842 121.637)"/>
  <path id="Path_1267" data-name="Path 1267" class="cls-6" d="M142.743,164.485a3.743,3.743,0,1,1,3.743-3.743A3.754,3.754,0,0,1,142.743,164.485Zm0-5.614a1.871,1.871,0,1,0,1.871,1.871A1.877,1.877,0,0,0,142.743,158.871Z" transform="translate(-8.942 -10.099)"/>
  <circle id="Oval_17_" class="cls-1" cx="1.404" cy="1.404" r="1.404" transform="translate(20.585 157.193)"/>
  <circle id="Oval_16_" class="cls-1" cx="1.404" cy="1.404" r="1.404" transform="translate(121.637 136.608)"/>
  <path id="Path_1268" data-name="Path 1268" class="cls-6" d="M31.743,150.485a3.743,3.743,0,1,1,3.743-3.743A3.754,3.754,0,0,1,31.743,150.485Zm0-5.614a1.871,1.871,0,1,0,1.871,1.871A1.877,1.877,0,0,0,31.743,144.871Z" transform="translate(-1.801 -9.199)"/>
  <path id="Path_1269" data-name="Path 1269" class="cls-1" d="M154.743,21.485a3.743,3.743,0,1,1,3.743-3.743A3.754,3.754,0,0,1,154.743,21.485Zm0-5.614a1.871,1.871,0,1,0,1.871,1.871A1.877,1.877,0,0,0,154.743,15.871Z" transform="translate(-9.713 -0.901)"/>
  <path id="Path_1270" data-name="Path 1270" class="cls-5" d="M165.936,86.614a.884.884,0,0,1-.936-.936V81.936a.936.936,0,1,1,1.871,0v3.743A.884.884,0,0,1,165.936,86.614Z" transform="translate(-10.614 -5.211)"/>
  <path id="Path_1271" data-name="Path 1271" class="cls-5" d="M167.678,84.871h-3.743a.936.936,0,0,1,0-1.871h3.743a.936.936,0,0,1,0,1.871Z" transform="translate(-10.485 -5.339)"/>
  <circle id="Oval_15_" class="cls-5" cx="1.404" cy="1.404" r="1.404" transform="translate(150.643 93.567)"/>
  <circle id="Oval_12_" class="cls-6" cx="1.404" cy="1.404" r="1.404" transform="translate(157.193 18.713)"/>
  <path id="Path_1272" data-name="Path 1272" class="cls-6" d="M55.936,12.485A.884.884,0,0,1,55,11.55V5.936a.936.936,0,0,1,1.871,0V11.55A.884.884,0,0,1,55.936,12.485Z" transform="translate(-3.538 -0.322)"/>
  <path id="Path_1273" data-name="Path 1273" class="cls-6" d="M58.55,9.871H52.936A.884.884,0,0,1,52,8.936.884.884,0,0,1,52.936,8H58.55a.884.884,0,0,1,.936.936A.884.884,0,0,1,58.55,9.871Z" transform="translate(-3.345 -0.515)"/>
  <circle id="Oval_7_" class="cls-7" cx="1.404" cy="1.404" r="1.404" transform="translate(133.333 1.871)"/>
  <circle id="Oval_6_" class="cls-4" cx="1.404" cy="1.404" r="1.404" transform="translate(12.632 15.906)"/>
  <path id="Path_1274" data-name="Path 1274" class="cls-5" d="M13.243,7.485a3.743,3.743,0,1,1,3.743-3.743A3.754,3.754,0,0,1,13.243,7.485Zm0-5.614a1.871,1.871,0,1,0,1.871,1.871A1.877,1.877,0,0,0,13.243,1.871Z" transform="translate(-0.611)"/>
  <path id="Shape_40_" class="cls-8" d="M93.936,47.7,90.1,53.782a8.69,8.69,0,0,1,2.807,4.678c2.152,9.076,2.526,18.246,2.807,27.509.094,4.585-.094,9.357-.187,14.222,2.152,5.333,4.959,10.48,6.737,15.906a8.365,8.365,0,0,1-.094,5.24H107.6v-8.421a13.259,13.259,0,0,1,13.1-13.474h6.269Z" transform="translate(-5.796 -3.068)"/>
  <path id="Shape_39_" class="cls-9" d="M73.5,136.031h27.135V126.3H73.5Z" transform="translate(-4.728 -8.125)"/>
  <path id="Shape_38_" class="cls-10" d="M73.5,136.031H92.868V126.3H73.5Z" transform="translate(-4.728 -8.125)"/>
  <path id="Shape_37_" class="cls-11" d="M79.7,136.031H95.232V126.3H79.7Z" transform="translate(-5.127 -8.125)"/>
  <path id="Shape_35_" class="cls-8" d="M77.7,146.337H95.1V136.7H77.7Z" transform="translate(-4.998 -8.794)"/>
  <path id="Shape_34_" class="cls-12" d="M79.7,137.9h27.135V126.3H79.7Z" transform="translate(-5.127 -8.125)"/>
  <path id="Shape_33_" class="cls-12" d="M85.9,146.337h17.5V136.7H85.9Z" transform="translate(-5.526 -8.794)"/>
  <path id="Shape_32_" class="cls-12" d="M87.923,49.8l-.561.842v.842c0,2.994.094,5.895.187,8.889a7.123,7.123,0,0,1,.281,1.965c0,10.105,2.152,23.766-.094,34.9-.374,5.52-.749,11.041-.936,16.561v7.673h14.6v-8.234a13.138,13.138,0,0,1,13.1-13.1h6.269Z" transform="translate(-5.584 -3.204)"/>
  <path id="Shape_31_" class="cls-10" d="M85.736,121.379H72.168v-8.234a13.138,13.138,0,0,0-13.1-13.1H52.8L85.736,49.8v71.579Z" transform="translate(-3.396 -3.204)"/>
  <path id="Shape_30_" class="cls-10" d="M64.371,97.093a3.394,3.394,0,0,0,0,3.275,3.269,3.269,0,0,0,2.807,1.684c6.363,0,11.509,6.082,11.509,13.474v5.988a.2.2,0,0,0,.187.187H94.219v-6.175c0-7.485,5.8-13.474,12.257-13.474h.281a2.96,2.96,0,0,0,2.62-1.591,3.041,3.041,0,0,0,0-3.088L87.856,52.555a1.136,1.136,0,0,0-2.058,0Z" transform="translate(-4.114 -3.339)"/>
  <path id="Shape_29_" class="cls-13" d="M81.8,40.6H93.4V29H81.8Z" transform="translate(-5.262 -1.865)"/>
  <path id="Shape_28_" class="cls-10" d="M39.6,34.8A5.8,5.8,0,1,1,33.8,29a5.77,5.77,0,0,1,5.8,5.8" transform="translate(-1.801 -1.865)"/>
  <path id="Shape_27_" class="cls-13" d="M40,38.75a1.416,1.416,0,0,1-.655,1.31,1.493,1.493,0,0,1-1.4.187,5.806,5.806,0,0,1,0-10.854,1.493,1.493,0,0,1,1.4.187A1.637,1.637,0,0,1,40,30.89v7.86Z" transform="translate(-2.2 -1.885)"/>
  <path id="Shape_7_" class="cls-14" d="M147.473,34.8c0,3.181-1.778,5.8-3.836,5.8s-3.836-2.62-3.836-5.8,1.778-5.8,3.836-5.8,3.836,2.526,3.836,5.8" transform="translate(-8.993 -1.865)"/>
  <path id="Shape_6_" class="cls-13" d="M137.687,29c.655,0-.655.094,0,.281a5.767,5.767,0,0,1,3.836,5.52,5.99,5.99,0,0,1-3.836,5.52c-.655.187.655.374,0,.374V29Z" transform="translate(-8.845 -1.865)"/>
  <path id="Shape_5_" class="cls-14" d="M141.8,100.7h5.8V89.1h-5.8Z" transform="translate(-9.122 -5.732)"/>
  <path id="Shape_4_" class="cls-13" d="M135.6,100.6h5.8V88.9h-5.8Z" transform="translate(-8.723 -5.719)"/>
  <path id="Shape_3_" class="cls-13" d="M34.2,100.7H40V89.1H34.2Z" transform="translate(-2.2 -5.732)"/>
  <path id="Shape_2_" class="cls-10" d="M28,100.6h5.8V88.9H28Z" transform="translate(-1.801 -5.719)"/>
  <path id="Path_1275" data-name="Path 1275" d="M41.345,102.445H26V87.1H41.345ZM29.743,98.7H37.6v-7.86h-7.86Z" transform="translate(-1.673 -5.603)"/>
  <path id="Path_1276" data-name="Path 1276" d="M148.945,102.445H133.6V87.1h15.345Zm-11.6-3.743h7.86v-7.86h-7.86Z" transform="translate(-8.594 -5.603)"/>
  <path id="Path_1277" data-name="Path 1277" d="M95.145,42.445H79.8V27.1H95.145ZM83.543,38.7H91.4v-7.86h-7.86Z" transform="translate(-5.133 -1.743)"/>
  <path id="Path_1278" data-name="Path 1278" d="M134.756,87.431a1.877,1.877,0,0,1-1.871-1.871V83.782a1.874,1.874,0,1,1,3.743-.187V85.56A1.877,1.877,0,0,1,134.756,87.431ZM34.171,85.092c-.094,0-.094-.094,0,0A1.892,1.892,0,0,1,32.3,83.127c0-.655.094-1.31.094-1.965a1.881,1.881,0,0,1,3.743.374,11.324,11.324,0,0,0-.094,1.778A2,2,0,0,1,34.171,85.092Zm100.023-5.146a1.9,1.9,0,0,1-1.871-1.591c-.094-.561-.187-1.216-.281-1.778a1.854,1.854,0,0,1,3.649-.655c.094.655.187,1.31.281,1.871a1.891,1.891,0,0,1-1.591,2.152ZM35.013,77.607h-.374a1.919,1.919,0,0,1-1.5-2.246c.094-.655.281-1.31.374-1.871a1.873,1.873,0,1,1,3.649.842c-.094.561-.281,1.216-.374,1.778A1.667,1.667,0,0,1,35.013,77.607Zm97.5-4.959a1.913,1.913,0,0,1-1.778-1.31l-.561-1.684a1.835,1.835,0,1,1,3.462-1.216c.187.655.374,1.216.561,1.871a1.893,1.893,0,0,1-1.216,2.339ZM37.071,70.4a1.592,1.592,0,0,1-.655-.094,1.909,1.909,0,0,1-1.123-2.433c.187-.561.468-1.216.655-1.778a1.868,1.868,0,1,1,3.462,1.4c-.187.561-.468,1.123-.655,1.684A1.713,1.713,0,0,1,37.071,70.4ZM129.8,65.724a1.864,1.864,0,0,1-1.684-1.029c-.281-.561-.561-1.123-.842-1.591a1.863,1.863,0,1,1,3.275-1.778c.281.561.561,1.123.842,1.778a1.875,1.875,0,0,1-.842,2.526C130.358,65.63,130.077,65.724,129.8,65.724ZM40.066,63.572a2.732,2.732,0,0,1-.842-.187,1.842,1.842,0,0,1-.749-2.526c.281-.561.655-1.123.936-1.684a1.778,1.778,0,0,1,2.526-.655,1.856,1.856,0,0,1,.655,2.526c-.281.561-.561,1.029-.842,1.591A1.877,1.877,0,0,1,40.066,63.572Zm86.082-4.3a1.957,1.957,0,0,1-1.591-.842c-.374-.468-.655-1.029-1.029-1.5a1.871,1.871,0,1,1,2.994-2.246c.374.561.749,1.029,1.123,1.591a1.918,1.918,0,0,1-.468,2.62A2.776,2.776,0,0,1,126.147,59.268ZM44.089,57.3a1.8,1.8,0,0,1-1.123-.374,1.83,1.83,0,0,1-.374-2.62,9.448,9.448,0,0,1,1.216-1.5,1.825,1.825,0,0,1,2.62-.281,1.91,1.91,0,0,1,.281,2.62l-1.123,1.4A1.953,1.953,0,0,1,44.089,57.3Zm77.38-3.93a2.063,2.063,0,0,1-1.4-.561c-.374-.468-.842-.842-1.216-1.31a1.853,1.853,0,0,1,2.62-2.62,17.96,17.96,0,0,1,1.31,1.4,1.893,1.893,0,0,1-.094,2.62A1.779,1.779,0,0,1,121.469,53.373ZM49.048,51.689a1.847,1.847,0,0,1-1.31-.561,1.808,1.808,0,0,1,0-2.62,17.963,17.963,0,0,1,1.4-1.31,1.854,1.854,0,1,1,2.526,2.713c-.468.374-.842.842-1.31,1.216A1.847,1.847,0,0,1,49.048,51.689Zm66.994-3.462a2.058,2.058,0,0,1-1.216-.374l-1.4-1.123a1.871,1.871,0,1,1,2.246-2.994,9.448,9.448,0,0,1,1.5,1.216,1.83,1.83,0,0,1-1.123,3.275Zm-61.287-1.4a1.953,1.953,0,0,1-1.5-.749,1.83,1.83,0,0,1,.374-2.62c.561-.374,1.029-.749,1.591-1.123a1.882,1.882,0,0,1,2.152,3.088c-.468.374-1.029.655-1.5,1.029A1.8,1.8,0,0,1,54.756,46.823Zm55.111-2.807a1.805,1.805,0,0,1-.936-.281c-.561-.281-1.029-.561-1.591-.842a1.863,1.863,0,0,1,1.778-3.275c.561.281,1.123.655,1.684.936a1.778,1.778,0,0,1,.655,2.526A1.93,1.93,0,0,1,109.867,44.016Zm-23.3-1.123H84.7a1.871,1.871,0,0,1,0-3.743h1.871a1.871,1.871,0,0,1,0,3.743Zm-7.485,0H76.744V39.618a1.871,1.871,0,1,1,3.743,0v.187a1.971,1.971,0,0,1,.468,1.216A1.877,1.877,0,0,1,79.083,42.893Zm-17.965,0a1.971,1.971,0,0,1-1.684-1.029,1.926,1.926,0,0,1,.749-2.526c.561-.281,1.123-.561,1.778-.842a1.883,1.883,0,1,1,1.684,3.368c-.561.281-1.123.561-1.591.842A4.118,4.118,0,0,1,61.118,42.893Zm29.1-1.965a1.877,1.877,0,0,1-1.871-1.871V37.186a1.871,1.871,0,0,1,3.743,0v1.871A1.877,1.877,0,0,1,90.218,40.928Zm12.912-.187a1.592,1.592,0,0,1-.655-.094c-.561-.187-1.123-.468-1.684-.655a1.895,1.895,0,0,1,1.31-3.556c.655.187,1.216.468,1.778.655a1.9,1.9,0,0,1,1.029,2.433A1.919,1.919,0,0,1,103.13,40.741ZM67.949,39.9a1.919,1.919,0,0,1-1.778-1.216,1.807,1.807,0,0,1,1.123-2.339c.655-.187,1.216-.374,1.871-.561a1.864,1.864,0,1,1,1.123,3.556L68.6,39.9Zm28.07-1.4a.844.844,0,0,1-.468-.094c-.561-.094-1.123-.281-1.778-.374a1.854,1.854,0,1,1,.655-3.649c.655.094,1.31.281,1.871.374A1.9,1.9,0,0,1,97.7,37,1.638,1.638,0,0,1,96.019,38.5Zm-20.865-.468a2,2,0,0,1-1.871-1.5,1.826,1.826,0,0,1,1.5-2.152c.655-.094,1.31-.187,1.871-.281a1.892,1.892,0,1,1,.561,3.743c-.561.094-1.216.187-1.778.281C75.434,37.934,75.34,38.028,75.153,38.028Z" transform="translate(-2.077 -2.192)"/>
  <path id="Path_1279" data-name="Path 1279" d="M33.673,42.445a7.673,7.673,0,1,1,7.673-7.673A7.707,7.707,0,0,1,33.673,42.445Zm0-11.6a3.93,3.93,0,1,0,3.93,3.93A3.954,3.954,0,0,0,33.673,30.843Z" transform="translate(-1.673 -1.743)"/>
  <path id="Path_1280" data-name="Path 1280" d="M141.273,42.445a7.673,7.673,0,1,1,7.673-7.673A7.707,7.707,0,0,1,141.273,42.445Zm0-11.6a3.93,3.93,0,1,0,3.93,3.93A3.954,3.954,0,0,0,141.273,30.843Z" transform="translate(-8.594 -1.743)"/>
  <path id="Path_1281" data-name="Path 1281" d="M79.008,37.043H40.271a1.871,1.871,0,1,1,0-3.743H79.008a1.871,1.871,0,1,1,0,3.743Z" transform="translate(-2.47 -2.142)"/>
  <path id="Path_1282" data-name="Path 1282" d="M132.808,37.043H94.071a1.871,1.871,0,0,1,0-3.743h38.737a1.871,1.871,0,1,1,0,3.743Z" transform="translate(-5.931 -2.142)"/>
  <path id="Path_1283" data-name="Path 1283" d="M100.943,123.106H70.066V113a11.261,11.261,0,0,0-11.228-11.228H49.2L66.51,75.2a1.895,1.895,0,1,1,3.181,2.058L56.124,98.03h2.713A15.015,15.015,0,0,1,73.808,113v6.363H97.2V113A15.015,15.015,0,0,1,112.171,98.03h2.807L85.5,53.024,76.989,66.03a1.895,1.895,0,1,1-3.181-2.058L85.5,46.1l36.4,55.673h-9.731A11.261,11.261,0,0,0,100.943,113Z" transform="translate(-3.165 -2.966)"/>
  <path id="Shape_1_" d="M74.83,72.065a1.965,1.965,0,1,0-1.965,1.965,2.113,2.113,0,0,0,1.965-1.965" transform="translate(-4.561 -4.509)"/>
  <path id="Path_1284" data-name="Path 1284" d="M102.377,137.774H71.5V124.3h30.877Zm-27.134-3.743H98.635v-5.988H75.243Z" transform="translate(-4.599 -7.996)"/>
  <path id="Path_1285" data-name="Path 1285" d="M98.718,148.08H75.7V134.7H98.718v13.38Zm-19.275-3.743H94.975v-5.895H79.443Z" transform="translate(-4.87 -8.665)"/>
  <path id="Path_1286" data-name="Path 1286" d="M87.871,53.279A1.877,1.877,0,0,1,86,51.408V47.571a1.871,1.871,0,0,1,3.743,0v3.836A1.877,1.877,0,0,1,87.871,53.279Z" transform="translate(-5.532 -2.94)"/>
  <circle id="Oval_3_" cx="1.871" cy="1.871" r="1.871" transform="translate(70.175 82.526)"/>
  <circle id="Oval_1_" cx="1.871" cy="1.871" r="1.871" transform="translate(90.76 82.526)"/>
  <path id="Path_1287" data-name="Path 1287" d="M87.678,103.814A4.633,4.633,0,0,1,83,99.136a.936.936,0,1,1,1.871,0,2.807,2.807,0,1,0,5.614,0,.936.936,0,1,1,1.871,0A4.633,4.633,0,0,1,87.678,103.814Z" transform="translate(-5.339 -6.317)"/>
</svg>