<svg xmlns="http://www.w3.org/2000/svg" xmlns:xlink="http://www.w3.org/1999/xlink" width="70" height="70" viewBox="0 0 70 70" version="1.1">
    <title>github</title>
    <g id="github" stroke="none" stroke-width="1" fill="none" fill-rule="evenodd">
        <g id="Group-5" transform="translate(11.000000, 12.000000)" fill="#161514">
            <path d="M24.0001987,0 C10.7469923,0 0,10.7450052 0,24.0001987 C0,34.6041151 6.87678741,43.600414 16.4128007,46.7739184 C17.6122542,46.9960836 18.0526102,46.2532809 18.0526102,45.6193749 C18.0526102,45.047071 18.030354,43.1564811 18.0200207,41.1510329 C11.3431422,42.6028566 9.93424136,38.3193211 9.93424136,38.3193211 C8.84249224,35.545237 7.26945146,34.8076009 7.26945146,34.8076009 C5.09191472,33.3180211 7.43359139,33.3486235 7.43359139,33.3486235 C9.84362658,33.51793 11.1126309,35.8218505 11.1126309,35.8218505 C13.2532064,39.4909543 16.7271704,38.4302049 18.0967253,37.8169654 C18.3121341,36.2657835 18.9341172,35.2070213 19.6204844,34.607692 C14.2897123,34.0008114 8.68590354,31.9429021 8.68590354,22.7466943 C8.68590354,20.1264169 9.62344856,17.985444 11.1587332,16.3046988 C10.9095425,15.7002029 10.088048,13.2591679 11.3912316,9.95331815 C11.3912316,9.95331815 13.4066156,9.308284 17.9929952,12.4134299 C19.9074312,11.8816643 21.9605713,11.6149865 24.0001987,11.6058456 C26.0398261,11.6149865 28.094556,11.8816643 30.0125688,12.4134299 C34.5933844,9.308284 36.6059863,9.95331815 36.6059863,9.95331815 C37.9123494,13.2591679 37.0904575,15.7002029 36.8412668,16.3046988 C38.3801283,17.985444 39.3113144,20.1264169 39.3113144,22.7466943 C39.3113144,31.9647609 33.696775,33.9944525 28.3524902,34.5886152 C29.2133306,35.3334051 29.9803767,36.7939723 29.9803767,39.0331112 C29.9803767,42.2443718 29.9525564,44.8288801 29.9525564,45.6193749 C29.9525564,46.2580501 30.3845663,47.0064169 31.6011095,46.770739 C41.1319561,43.5936576 48,34.6005382 48,24.0001987 C48,10.7450052 37.2545974,0 24.0001987,0" id="Fill-5"/>
            <path d="M9.09009315,34.459052 C9.03723453,34.5782819 8.84964604,34.6140509 8.67874974,34.5321797 C8.50467398,34.4538853 8.4069054,34.2913351 8.46334092,34.1717077 C8.51500724,34.0489008 8.70299317,34.0147216 8.8766715,34.0969903 C9.05114469,34.1752846 9.150503,34.3394245 9.09009315,34.459052" id="Fill-6"/>
            <path d="M10.0622149,35.5432498 C9.94775409,35.6493645 9.72399917,35.6000828 9.57217967,35.432366 C9.41519354,35.2650466 9.38578348,35.0412917 9.50183399,34.9335872 C9.61987166,34.8274726 9.83687021,34.8771517 9.99425378,35.0444711 C10.1512399,35.2137777 10.1818423,35.4359429 10.0622149,35.5432498" id="Fill-7"/>
            <path d="M11.0085034,36.9255227 C10.8614531,37.027663 10.621006,36.9318816 10.472366,36.7184599 C10.3253157,36.5050383 10.3253157,36.2490913 10.4755454,36.1465535 C10.6245829,36.0440157 10.8614531,36.1362202 11.0120803,36.3480522 C11.1587332,36.5650507 11.1587332,36.8209977 11.0085034,36.9255227" id="Fill-8"/>
            <path d="M12.3049307,38.2608984 C12.1733803,38.4059615 11.8931898,38.367013 11.6881143,38.1690913 C11.4782695,37.9755413 11.4198468,37.7009149 11.5517947,37.5558518 C11.6849348,37.4103912 11.966715,37.4513268 12.1733803,37.6476589 C12.3816353,37.8408114 12.4452246,38.117425 12.3049307,38.2608984" id="Fill-9"/>
            <path d="M14.0933803,39.0362906 C14.035355,39.2242765 13.7654978,39.3097247 13.4936535,39.2298406 C13.2222066,39.1475719 13.0445539,38.9273939 13.0993997,38.7374208 C13.1558352,38.5482426 13.4268847,38.4592176 13.7007162,38.5446657 C13.9717657,38.6265369 14.1498158,38.8451252 14.0933803,39.0362906" id="Fill-10"/>
            <path d="M16.0574953,39.1801615 C16.0642517,39.3780832 15.8337404,39.5422231 15.5483834,39.5458 C15.2614366,39.552159 15.0293355,39.3919934 15.0261561,39.1972511 C15.0261561,38.9973422 15.2515007,38.834792 15.5384475,38.8300228 C15.8238046,38.8244587 16.0574953,38.983432 16.0574953,39.1801615" id="Fill-11"/>
            <path d="M17.8852908,38.8689712 C17.9194701,39.0621238 17.7211509,39.260443 17.437781,39.3133016 C17.1591803,39.364173 16.9012461,39.2449431 16.8658746,39.0533803 C16.8312979,38.8554585 17.033194,38.6571393 17.3113972,38.6058704 C17.5951646,38.5565887 17.8491244,38.6726392 17.8852908,38.8689712" id="Fill-12"/>
        </g>
    </g>
</svg>