<svg xmlns:xlink="http://www.w3.org/1999/xlink" xmlns="http://www.w3.org/2000/svg" viewBox="0 0 29.451 23.979" width="30"  height="30" >
                        <path id="twitter" class="cls-1" d="M11.015,23.979c-4.924,0-8.93-.86-10.716-2.3a.663.663,0,0,1-.213-.737.685.685,0,0,1,.632-.463A12.339,12.339,0,0,0,6.99,18.9a5.957,5.957,0,0,1-5.436-4.238.6.6,0,0,1,.9-.707,4.116,4.116,0,0,0,2.392.582,9.744,9.744,0,0,1-4.3-5.406A.592.592,0,0,1,.8,8.464a.6.6,0,0,1,.722.054A3.808,3.808,0,0,0,3.553,9.4,6.66,6.66,0,0,1,2.078,1.269L2.4.646l.484.508C5.979,4.4,8.838,5.89,14.012,6.891v-.2A6.63,6.63,0,0,1,20.385,0a10.193,10.193,0,0,1,4.126,1.427.137.137,0,0,0,.111.014c.98-.3,2.213-.813,3.605-1.4a.555.555,0,0,1,.744.68,6.748,6.748,0,0,1-1.244,2.148l.993-.343a.586.586,0,0,1,.751.728A4.914,4.914,0,0,1,27,6.325v.169c0,9.641-7.171,17.485-15.986,17.485" transform="translate(-0.048 0)" fill="#FFFFFF"></path>
                    </svg>