<svg xmlns:xlink="http://www.w3.org/1999/xlink" xmlns="http://www.w3.org/2000/svg" viewBox="0 0 29.966 29.966" width="30"  height="30" >
                        <path id="dribbble" class="cls-1" d="M27.532,17.167a12.77,12.77,0,0,1-5.466,8.393L21.4,26l-.107-.793a41.393,41.393,0,0,0-2.14-8.569l-.209-.578.607-.088a17.2,17.2,0,0,1,7.641.629l.414.132Zm-7.666,9.57A12.736,12.736,0,0,1,7.29,25.1l-.346-.264.215-.379a17,17,0,0,1,9.782-7.889l.439-.136.172.426A40.358,40.358,0,0,1,20.169,26.2l.054.384ZM6.007,24l-.451-.5a12.692,12.692,0,0,1-3.275-8.519c0-.111,0-.221,0-.332l.011-.491.492,0A40,40,0,0,0,15.094,12.5l.407-.129.191.381c.345.688.672,1.374.975,2.039l.232.509-.533.172a18.286,18.286,0,0,0-10.01,7.952ZM2.556,12.349A12.8,12.8,0,0,1,9.493,3.516l.363-.174.248.317a58.687,58.687,0,0,1,4.5,7.03l.3.548-.6.173A43.322,43.322,0,0,1,3.229,12.953H3.037l-.606-.009ZM12.04,2.612a12.739,12.739,0,0,1,11.4,2.854l.458.406-.449.336a16.679,16.679,0,0,1-6.524,4.314l-.414.163L16.3,10.3a42.454,42.454,0,0,0-4.522-6.871L11.243,2.8Zm12.1,4.34.451-.339.3.374a12.583,12.583,0,0,1,2.827,7.829l.009.673L27.08,15.3a18.48,18.48,0,0,0-8.2-.45l-.392.067-.153-.366c-.321-.764-.667-1.535-1.032-2.289l-.227-.471.481-.206c4.73-2.023,6.515-4.545,6.532-4.57ZM15,0A14.983,14.983,0,1,0,29.983,14.983,15,15,0,0,0,15,0Z" transform="translate(-0.018 0)" fill="#FFFFFF"></path>
                    </svg>